<!-- Save this as github-icon.svg in your public folder or src/assets folder -->
<svg
  xmlns="http://www.w3.org/2000/svg"
  viewBox="0 0 24 24"
  fill="currentColor"
  width="24"
  height="24"
>
  <path
    fillRule="evenodd"
    d="M12 2C6.477 2 2 6.477 2 12c0 4.418 2.867 8.166 6.839 9.489.5.092.682-.217.682-.483 0-.237-.01-1.025-.014-1.86-2.782.605-3.369-1.34-3.369-1.34-.454-1.156-1.11-1.464-1.11-1.464-.908-.62.069-.608.069-.608 1.002.07 1.528 1.03 1.528 1.03.892 1.529 2.341 1.088 2.91.832.091-.647.35-1.088.636-1.34-2.221-.253-4.555-1.112-4.555-4.945 0-1.092.39-1.986 1.029-2.683-.103-.253-.447-1.27.098-2.645 0 0 .84-.269 2.75 1.025A9.543 9.543 0 0112 6.798a9.54 9.54 0 012.502.336c1.909-1.294 2.748-1.025 2.748-1.025.546 1.375.202 2.392.099 2.645.641.697 1.028 1.591 1.028 2.683 0 3.842-2.338 4.688-4.565 4.935.359.31.678.922.678 1.855 0 1.338-.012 2.419-.012 2.747 0 .268.18.58.688.482C19.136 20.163 22 16.418 22 12c0-5.523-4.477-10-10-10z"
    clipRule="evenodd"
  />
</svg>
